#define close_pressed_width 16
#define close_pressed_height 12
static char close_pressed_bits[] = {
  0x00, 0x00, 0x00, 0x00, 0x18, 0x18, 0x30, 0x0C, 0x60, 0x06, 0xC0, 0x03, 
  0xC0, 0x03, 0x60, 0x06, 0x30, 0x0C, 0x18, 0x18, 0x00, 0x00, 0x00, 0x00, 
  };
