#define stick_pressed_width 16
#define stick_pressed_height 12
static char stick_pressed_bits[] = {
  0x00, 0x00, 0x00, 0x00, 0x00, 0x00, 0xE0, 0x07, 0x20, 0x04, 0xA0, 0x05, 
  0xA0, 0x05, 0x20, 0x04, 0xE0, 0x07, 0x00, 0x00, 0x00, 0x00, 0x00, 0x00, 
  };
