#define menu_pressed_width 16
#define menu_pressed_height 12
static char menu_pressed_bits[] = {
  0x00, 0x00, 0xFC, 0x3F, 0xFC, 0x3F, 0x04, 0x20, 0xF4, 0x2F, 0x04, 0x20, 
  0xF4, 0x2F, 0x04, 0x20, 0xF4, 0x2F, 0x04, 0x20, 0xFC, 0x3F, 0x00, 0x00, 
  };
