#define rhalf_pressed_width 16
#define rhalf_pressed_height 12
static char rhalf_pressed_bits[] = {
  0x00, 0x00, 0x80, 0x3F, 0x84, 0x20, 0x8C, 0x3F, 0x9C, 0x20, 0xBC, 0x20, 
  0xBC, 0x20, 0x9C, 0x20, 0x8C, 0x20, 0x84, 0x20, 0x80, 0x3F, 0x00, 0x00, 
  };
