#define unshade_pressed_width 16
#define unshade_pressed_height 12
static char unshade_pressed_bits[] = {
  0x00, 0x00, 0xFC, 0x3F, 0x04, 0x20, 0xFC, 0x3F, 0x04, 0x20, 0xF4, 0x2F, 
  0xE4, 0x27, 0xC4, 0x23, 0x84, 0x21, 0x04, 0x20, 0xFC, 0x3F, 0x00, 0x00, 
  };
