/* XPM */
static char * windows_xpm[] = {
"16 14 4 1",
" 	c None",
".	c #181818",
",	c #373737",
";	c #484848",
"       .;       ",
"       .;       ",
"       .;       ",
"       .;       ",
"       .;       ",
"       .;       ",
"       .;       ",
"   .;  .;  .;   ",
"    .; .; .;    ",
"     .;.;.;     ",
"      ...;      ",
"       .;       ",
" .............; ",
"...............;"};
