/* XPM */
static char * windows_xpm[] = {
"18 14 4 1",
" 	c None",
".	c #181818",
",	c #373737",
";	c #484848",
"..........        ",
".;;;;;;;;;        ",
".        ;        ",
".   ..........    ",
".   .;;;;;;;;;    ",
".   .        ;    ",
".....   ..........",
"    .   .;;;;;;;;;",
"    .   .        ;",
"    .....        ;",
"        .        ;",
"        .        ;",
"        .        ;",
"        .........;"};
