/* XPM */
static char * lhalf_pressed_xpm[] = {
"20 14 5 1",
" 	c None",
".	c #383838",
"+	c #8BA47C",
"$	c #9C9C9C",
"#	c #C0EEA5",
"++++++++++++++++++++",
"++++++++++++++++++++",
"++++++++++++++++++++",
"+++#######++++#+++++",
"+++#+++++#+++##+++++",
"+++#+++++#++###+++++",
"+++#+++++#+####+++++",
"+++#+++++#+####+++++",
"+++#+++++#++###+++++",
"+++#+++++#+++##+++++",
"+++#######++++#+++++",
"++++++++++++++++++++",
"++++++++++++++++++++",
"++++++++++++++++++++"
};
