/* XPM */
static char * button_max_active_xpm[] = {
"13 13 9 1",
" 	c None",
".	c #161616",
"#	c #4A6367",
";	c #6B7172",
"$	c #C3C3C3",
"-	c #373737",
"@	c #9C9C9C",
":	c #808080",
"?	c #F0F0F0",
"#############",
"####$$$$$$$$#",
"####$######$#",
"####$$$$$$$$#",
"####$######$#",
"#$$$$$$$###$#",
"#$#####$$$$$#",
"#$$$$$$$#####",
"#$#####$#####",
"#$#####$#####",
"#$#####$#####",
"#$$$$$$$#####",
"#############"
};
