#define max_pressed_width 12
#define max_pressed_height 12
static char max_pressed_bits[] = {
  0xFF, 0x0F, 0x01, 0x08, 0xFF, 0x0F, 0x01, 0x08, 0x01, 0x08, 0x01, 0x08, 
  0x01, 0x08, 0x01, 0x08, 0x01, 0x08, 0x01, 0x08, 0x01, 0x08, 0xFF, 0x0F, 
  };
