#define close_pressed_width 12
#define close_pressed_height 12
static char close_pressed_bits[] = {
  0xFF, 0x0F, 0xF9, 0x09, 0xF1, 0x08, 0x63, 0x0C, 0x07, 0x0E, 0x0F, 0x0F, 
  0x0F, 0x0F, 0x07, 0x0E, 0x63, 0x0C, 0xF1, 0x08, 0xF9, 0x09, 0xFF, 0x0F, 
  };
