#define shade_pressed_width 12
#define shade_pressed_height 12
static char shade_pressed_bits[] = {
  0xFF, 0x0F, 0x01, 0x08, 0xFF, 0x0F, 0x60, 0x00, 0xF0, 0x00, 0xF8, 0x01, 
  0x6C, 0x03, 0x60, 0x00, 0x60, 0x00, 0x60, 0x00, 0x60, 0x00, 0x60, 0x00, 
  };
