#define max_hover_width 12
#define max_hover_height 12
static char max_hover_bits[] = {
  0xFF, 0x0F, 0x01, 0x08, 0xFF, 0x0F, 0x61, 0x08, 0xF1, 0x08, 0xF9, 0x09, 
  0xFD, 0x0B, 0x61, 0x08, 0x61, 0x08, 0x61, 0x08, 0x01, 0x08, 0xFF, 0x0F, 
  };
