#define lhalf_pressed_width 16
#define lhalf_pressed_height 12
static char lhalf_pressed_bits[] = {
  0x00, 0x00, 0xFC, 0x01, 0x04, 0x21, 0xFC, 0x31, 0x04, 0x39, 0x04, 0x3D, 
  0x04, 0x3D, 0x04, 0x39, 0x04, 0x31, 0x04, 0x21, 0xFC, 0x01, 0x00, 0x00, 
  };
