#define iconify_disabled_width 12
#define iconify_disabled_height 12
static char iconify_disabled_bits[] = {
  0x00, 0x00, 0x00, 0x00, 0x00, 0x00, 0x00, 0x00, 0x00, 0x00, 0x00, 0x00, 
  0x00, 0x00, 0x00, 0x00, 0x00, 0x00, 0x01, 0x08, 0x01, 0x08, 0xFF, 0x0F, 
  };
