/* XPM */
static char * hilite_select_xpm[] = {
"16 12 2 1",
" 	c None",
".	c #C0C0C0",
"                ",
"                ",
"                ",
"      .....     ",
"      .   .     ",
"      . . .     ",
"      .   .     ",
"      .....     ",
"                ",
"                ",
"                ",
"                "
};
