/* XPM */
static char * toolbar_unfocused_xpm[] = {
"10 18 4 1",
" 	c None",
".	c #181818",
"+	c #4A6367",
"@	c #467277",
"++++++++++",
"..........",
"..........",
"..........",
"..........",
"..........",
"..........",
"..........",
"..........",
"..........",
"..........",
"..........",
"..........",
"..........",
"..........",
"..........",
"..........",
"++++++++++"};
