/* XPM */
static char * min_xpm[] = {
"16 16 10 1",
" 	c None",
".	c #161616",
"+	c #12171A",
"@	c #121818",
"#	c #467177",
"$	c #10181A",
"%	c #0F191A",
"&	c #151618",
"*	c #131718",
":	c #9C9C9C",
"................",
"+@+@+@+@+@+@+@+@",
"################",
"################",
"##::::::::::::##",
"##:##########:##",
"##::::::::::::##",
"################",
"####:::::::::###",
"#####::::::#####",
"######::::######",
"#######::#######",
"################",
"################",
"$%$%%%%%%%%%%%%%",
"&*&*************"};
