/* XPM */
static char * menu_xpm[] = {
"16 16 3 1",
" 	c None",
".	c #383838",
"+	c #3E5C2C",
"................",
"................",
".+++++++++++++++",
".+++++++++++++++",
".+++++++++++++++",
".+++++++++++++++",
".+++++++++++++++",
".+++++++++++++++",
".+++++++++++++++",
".+++++++++++++++",
".+++++++++++++++",
".+++++++++++++++",
".+++++++++++++++",
".+++++++++++++++",
"................",
"................"};
