/* XPM */
static char * menu_pressed_xpm[] = {
"16 16 5 1",
" 	c None",
".	c #383838",
"+	c #5C764D",
"$	c #9C9C9C",
"#	c #C0EEA5",
"................",
"................",
".+++++++++++++++",
".+++++++++++++++",
".++##########+++",
".++##########+++",
".++#++++++++#+++",
".++#+######+#+++",
".++#++++++++#+++",
".++#+######+#+++",
".++#++++++++#+++",
".++##########+++",
".+++++++++++++++",
".+++++++++++++++",
"................",
"................"};
