/* XPM */
static char * rhalf_xpm[] = {
"16 16 3 1",
" 	c None",
".	c #383838",
"+	c #759164",
"................",
"................",
"++++++++++++++++",
"++++++++++++++++",
"++++++++++++++++",
"++++++++++++++++",
"++++++++++++++++",
"++++++++++++++++",
"++++++++++++++++",
"++++++++++++++++",
"++++++++++++++++",
"++++++++++++++++",
"++++++++++++++++",
"++++++++++++++++",
"................",
"................"};
