/* XPM */
static char * toolbar_unfocused_xpm[] = {
"10 18 4 1",
" 	c None",
".	c #383838",
"+	c #4D6B3B",
"@	c #617953",
"++++++++++",
"..........",
"..........",
"..........",
"..........",
"..........",
"..........",
"..........",
"..........",
"..........",
"..........",
"..........",
"..........",
"..........",
"..........",
"..........",
"..........",
"++++++++++"};
