/* XPM */
static char * close_unfocus_xpm[] = {
"17 18 8 1",
" 	c None",
".	c None",
"#	c #394870",
";	c #394870",
"$	c #C3C3C3",
"-	c #373737",
"@	c #9C9C9C",
":	c #808080",
".................",
".................",
".................",
"################.",
"################.",
"################.",
"################.",
"################.",
"################.",
"################.",
"################.",
"################.",
"################.",
"################.",
"################.",
".................",
".................",
"................."
};
