/* XPM */
static char * menu_pressed_xpm[] = {
"17 18 4 1",
" 	c None",
".	c None",
"#	c #f0f0f0",
"%	c #394870",
".................",
".................",
".................",
".%%%%%%%%%%%%%%%%",
".%%############%%",
".%%############%%",
".%%#%%%%%%%%%%#%%",
".%%#%########%#%%",
".%%#%%%%%%%%%%#%%",
".%%#%########%#%%",
".%%#%%%%%%%%%%#%%",
".%%#%########%#%%",
".%%#%%%%%%%%%%#%%",
".%%############%%",
".%%%%%%%%%%%%%%%%",
".................",
".................",
"................."};
