/* XPM */
static char * menu_focused_xpm[] = {
"17 18 4 1",
" 	c None",
".	c None",
"#	c #C0C0C0",
"%	c #394870",
".................",
".................",
".................",
".%%%%%%%%%%%%%%%%",
".%%############%%",
".%%############%%",
".%%#%%%%%%%%%%#%%",
".%%#%%%%%%%%%%#%%",
".%%#%%%%%%%%%%#%%",
".%%#%########%#%%",
".%%#%%%%%%%%%%#%%",
".%%#%%%%%%%%%%#%%",
".%%#%%%%%%%%%%#%%",
".%%############%%",
".%%%%%%%%%%%%%%%%",
".................",
".................",
"................."};
