/* XPM */
static char * minimize_pressed_xpm[] = {
"17 18 4 1",
" 	c None",
".	c None",
"@	c #5369A3",
"$	c #f0f0f0",
".................",
".................",
".................",
"@@@@@@@@@@@@@@@@.",
"@@@@@@@@@@@@@@@@.",
"@@@@@@@@@@@@@@@@.",
"@@@@$$$$$$$$@@@@.",
"@@@@@$$$$$$@@@@@.",
"@@@@@@$$$$@@@@@@.",
"@@@@@@@$$@@@@@@@.",
"@@@@@@@@@@@@@@@@.",
"@@$$$$$$$$$$$$@@.",
"@@$@@@@@@@@@@$@@.",
"@@$$$$$$$$$$$$@@.",
"@@@@@@@@@@@@@@@@.",
".................",
".................",
"................."};
