/* XPM */
static char * shade_focused_xpm[] = {
"17 18 4 1",
" 	c None",
".	c None",
"$	c #5369A3",
"#	c #C0C0C0",
".................",
".................",
".................",
".$$$$$$$$$$$$$$$$",
".$$############$$",
".$$#$$$$$$$$$$#$$",
".$$############$$",
".$$$$$$$$$$$$$$$$",
".$$$$$$$$$$$$$$$$",
".$$$$$$$$$$$$$$$$",
".$$$$$$$$$$$$$$$$",
".$$$$$$$$$$$$$$$$",
".$$$$$$$$$$$$$$$$",
".$$$$$$$$$$$$$$$$",
".$$$$$$$$$$$$$$$$",
".................",
".................",
"................."};
