/* XPM */
static char * stick_pressed_xpm[] = {
"17 18 4 1",
" 	c None",
".	c None",
"#	c #F0F0F0",
"%	c #455787",
".................",
".................",
".................",
".%%%%%%%%%%%%%%%%",
".%%%%%%%%%%%%%%%%",
".%%%%%%%%%%%%%%%%",
".%%%%%######%%%%%",
".%%%%%#%%%%#%%%%%",
".%%%%%#%##%#%%%%%",
".%%%%%#%##%#%%%%%",
".%%%%%#%%%%#%%%%%",
".%%%%%######%%%%%",
".%%%%%%%%%%%%%%%%",
".%%%%%%%%%%%%%%%%",
".%%%%%%%%%%%%%%%%",
".................",
".................",
"................."};
