#define desk_toggled_width 12
#define desk_toggled_height 12
static char desk_toggled_bits[] = {
  0x00, 0x00, 0x00, 0x00, 0xFC, 0x03, 0x04, 0x02, 0xF4, 0x02, 0xF4, 0x02, 
  0xF4, 0x02, 0xF4, 0x02, 0x04, 0x02, 0xFC, 0x03, 0x00, 0x00, 0x00, 0x00, 
  };
