#define shade_toggled_hover_width 12
#define shade_toggled_hover_height 12
static char shade_toggled_hover_bits[] = {
  0xFF, 0x0F, 0x01, 0x08, 0xFF, 0x0F, 0x00, 0x00, 0xFE, 0x07, 0xFC, 0x03, 
  0xF8, 0x01, 0xF0, 0x00, 0x60, 0x00, 0x00, 0x00, 0x00, 0x00, 0x00, 0x00, 
  };
