/* XPM */
static char * unshade_xpm[] = {
"16 16 5 1",
" 	c None",
".	c #383838",
"+	c #617953",
"$	c #9C9C9C",
"#	c #91B57C",
"................",
"................",
"++++++++++++++++",
"++++++++++++++++",
"++############++",
"++#++++++++++#++",
"++############++",
"++++++++++++++++",
"++++########++++",
"+++++######+++++",
"++++++####++++++",
"+++++++##+++++++",
"++++++++++++++++",
"++++++++++++++++",
"................",
"................"};
