/* XPM */
static char * shade_unfocus_xpm[] = {
"17 18 4 1",
" 	c None",
".	c None",
"$	c #467177",
"#	c #C3C3C3",
".................",
".................",
".................",
".$$$$$$$$$$$$$$$$",
".$$$$$$$$$$$$$$$$",
".$$$$$$$$$$$$$$$$",
".$$$$$$$$$$$$$$$$",
".$$$$$$$$$$$$$$$$",
".$$$$$$$$$$$$$$$$",
".$$$$$$$$$$$$$$$$",
".$$$$$$$$$$$$$$$$",
".$$$$$$$$$$$$$$$$",
".$$$$$$$$$$$$$$$$",
".$$$$$$$$$$$$$$$$",
".$$$$$$$$$$$$$$$$",
".................",
".................",
"................."};
