/* XPM */
static char * unshade_pressed_xpm[] = {
"20 14 4 1",
" 	c None",
".	c #161616",
"$	c #467177",
"#	c #C3C3C3",
"$$$$$$$$$$$$$$$$$$$$",
"$$$$$$$$$$$$$$$$$$$$",
"$$$$############$$$$",
"$$$$#$$$$$$$$$$#$$$$",
"$$$$############$$$$",
"$$$$#$$$$$$$$$$#$$$$",
"$$$$#$########$#$$$$",
"$$$$#$$######$$#$$$$",
"$$$$#$$$####$$$#$$$$",
"$$$$#$$$$##$$$$#$$$$",
"$$$$#$$$$$$$$$$#$$$$",
"$$$$############$$$$",
"$$$$$$$$$$$$$$$$$$$$",
"$$$$$$$$$$$$$$$$$$$$"
};
