/* XPM */
static char * max_pressed_xpm[] = {
"16 16 3 1",
" 	c None",
".	c #E3E5EB",
"+	c #848586",
"................",
"................",
"++++++++++++++++",
"++++++++++++++++",
"++++++++++++++++",
"++++++++++++++++",
"++++++++++++++++",
"++++++++++++++++",
"++++++++++++++++",
"++++++++++++++++",
"++++++++++++++++",
"++++++++++++++++",
"++++++++++++++++",
"++++++++++++++++",
"................",
"................"};
