/* XPM */
static char *border_bl_xpm[] = {
/* columns rows colors chars-per-pixel */
"8 8 2 1 ",
"  c None",
". c #161616",
/* pixels */
".       ",
".       ",
".       ",
".       ",
".       ",
".       ",
"........",
"........"
};
