/* XPM */
static char * maximize_unfocus_xpm[] = {
"17 18 3 1",
" 	c None",
".	c None",
"%	c #4D6B3B",
".................",
".................",
".................",
"%%%%%%%%%%%%%%%%.",
"%%%%%%%%%%%%%%%%.",
"%%%%%%%%%%%%%%%%.",
"%%%%%%%%%%%%%%%%.",
"%%%%%%%%%%%%%%%%.",
"%%%%%%%%%%%%%%%%.",
"%%%%%%%%%%%%%%%%.",
"%%%%%%%%%%%%%%%%.",
"%%%%%%%%%%%%%%%%.",
"%%%%%%%%%%%%%%%%.",
"%%%%%%%%%%%%%%%%.",
"%%%%%%%%%%%%%%%%.",
".................",
".................",
"................."};
