/* XPM */
static char * maximize_focused_xpm[] = {
"17 18 4 1",
" 	c None",
".	c None",
"%	c #4D6B3B",
"$	c #C0C0C0",
".................",
".................",
".................",
"%%%%%%%%%%%%%%%%.",
"%%%%%%%%%%%%%%%%.",
"%%%$$$$$$$$$$%%%.",
"%%%$%%%%%%%%$%%%.",
"%%%$$$$$$$$$$%%%.",
"%%%$%%%%%%%%$%%%.",
"%%%$%%%%%%%%$%%%.",
"%%%$%%%%%%%%$%%%.",
"%%%$%%%%%%%%$%%%.",
"%%%$$$$$$$$$$%%%.",
"%%%%%%%%%%%%%%%%.",
"%%%%%%%%%%%%%%%%.",
".................",
".................",
"................."};
