/* XPM */
static char * menu_unfocus_xpm[] = {
"17 18 4 1",
" 	c None",
".	c None",
"#	c #C3C3C3",
"%	c #3E5C2C",
".................",
".................",
".................",
".%%%%%%%%%%%%%%%%",
".%%%%%%%%%%%%%%%%",
".%%%%%%%%%%%%%%%%",
".%%%%%%%%%%%%%%%%",
".%%%%%%%%%%%%%%%%",
".%%%%%%%%%%%%%%%%",
".%%%%%%%%%%%%%%%%",
".%%%%%%%%%%%%%%%%",
".%%%%%%%%%%%%%%%%",
".%%%%%%%%%%%%%%%%",
".%%%%%%%%%%%%%%%%",
".%%%%%%%%%%%%%%%%",
".................",
".................",
"................."};
