/* XPM */
static char * shade_pressed_xpm[] = {
"17 18 4 1",
" 	c None",
".	c None",
"$	c #617953",
"#	c #F0F0F0",
".................",
".................",
".................",
".$$$$$$$$$$$$$$$$",
".$$############$$",
".$$#$$$$$$$$$$#$$",
".$$############$$",
".$$$$$$$$$$$$$$$$",
".$$$$$$$##$$$$$$$",
".$$$$$$####$$$$$$",
".$$$$$######$$$$$",
".$$$$########$$$$",
".$$$$$$$$$$$$$$$$",
".$$$$$$$$$$$$$$$$",
".$$$$$$$$$$$$$$$$",
".................",
".................",
"................."};
