/* XPM */
static char * closeI_xpm[] = {
"17 32 8 1",
" 	c None",
".	c #E3E5EB",
"#	c #313131",
";	c #6B7172",
"$	c #FFFFFF",
"-	c #373737",
"@	c #9C9C9C",
":	c #808080",
".................",
"################.",
"################.",
"################.",
"################.",
"################.",
"################.",
"################.",
"################.",
"################.",
"################.",
"################.",
"################.",
".................",
".................",
".................",
".................",
";;;;;;;;;;;;;;;;.",
";;;;;;;;;;;;;;;;.",
";;;;;;;;;;;;;;;;.",
";;;;;;;;;;;;;;;;.",
";;;;;;;;;;;;;;;;.",
";;;;;;;;;;;;;;;;.",
";;;;;;;;;;;;;;;;.",
";;;;;;;;;;;;;;;;.",
";;;;;;;;;;;;;;;;.",
";;;;;;;;;;;;;;;;.",
";;;;;;;;;;;;;;;;.",
";;;;;;;;;;;;;;;;.",
".................",
".................",
"................."
};
