/* XPM */
static char * menuButtonA_xpm[] = {
"17 32 9 1",
" 	c None",
".	c #E3E5EB",
"#	c #E3E5EB",
";	c #E3E5EB",
"$	c #C3C3C3",
"-	c #373737",
"@	c #9C9C9C",
":	c #808080",
"?	c #181818",
".................",
".################",
".################",
".################",
".################",
".################",
".################",
".################",
".################",
".################",
".################",
".################",
".################",
".................",
".................",
".................",
".................",
".;;????????????;;",
".;;????????????;;",
".;;?;;;;;;;;;;?;;",
".;;?;????????;?;;",
".;;?;;;;;;;;;;?;;",
".;;?;????????;?;;",
".;;?;;;;;;;;;;?;;",
".;;?;????????;?;;",
".;;?;;;;;;;;;;?;;",
".;;?;????????;?;;",
".;;?;;;;;;;;;;?;;",
".;;????????????;;",
".................",
".................",
"................."
};
