/* XPM */
static char *tile[] = {
/* columns rows colors chars-per-pixel */
"64 64 10 1 ",
"  c None",
"@ c #5369A3", /* outside tl edge */
"$ c #455787", /* next tl edge */
"# c #223252", /* next tl edge */
"/ c #162646", /* next tl edge */
"- c #161616", /* center tile color */
". c #5369A3", /* inner br edge */
"+ c #455787", /* next br edge */
"= c #223252", /* next br edge */
": c #162646", /* next br edge */
"@@@@@@@@@@@@@@@@@@@@@@@@@@@@@@@@@@@@@@@@@@@@@@@@@@@@@@@@@@@@@@@=",
"@$$$$$$$$$$$$$$$$$$$$$$$$$$$$$$$$$$$$$$$$$$$$$$$$$$$$$$$$$$$$$=:",
"@$###########################################################$=:",
"@$#/////////////////////////////////////////////////////////.+=:",
"@$#/--------------------------------------------------------.+=:",
"@$#/--------------------------------------------------------.+=:",
"@$#/--------------------------------------------------------.+=:",
"@$#/--------------------------------------------------------.+=:",
"@$#/--------------------------------------------------------.+=:",
"@$#/--------------------------------------------------------.+=:",
"@$#/--------------------------------------------------------.+=:",
"@$#/--------------------------------------------------------.+=:",
"@$#/--------------------------------------------------------.+=:",
"@$#/--------------------------------------------------------.+=:",
"@$#/--------------------------------------------------------.+=:",
"@$#/--------------------------------------------------------.+=:",
"@$#/--------------------------------------------------------.+=:",
"@$#/--------------------------------------------------------.+=:",
"@$#/--------------------------------------------------------.+=:",
"@$#/--------------------------------------------------------.+=:",
"@$#/--------------------------------------------------------.+=:",
"@$#/--------------------------------------------------------.+=:",
"@$#/--------------------------------------------------------.+=:",
"@$#/--------------------------------------------------------.+=:",
"@$#/--------------------------------------------------------.+=:",
"@$#/--------------------------------------------------------.+=:",
"@$#/--------------------------------------------------------.+=:",
"@$#/--------------------------------------------------------.+=:",
"@$#/--------------------------------------------------------.+=:",
"@$#/--------------------------------------------------------.+=:",
"@$#/--------------------------------------------------------.+=:",
"@$#/--------------------------------------------------------.+=:",
"@$#/--------------------------------------------------------.+=:",
"@$#/--------------------------------------------------------.+=:",
"@$#/--------------------------------------------------------.+=:",
"@$#/--------------------------------------------------------.+=:",
"@$#/--------------------------------------------------------.+=:",
"@$#/--------------------------------------------------------.+=:",
"@$#/--------------------------------------------------------.+=:",
"@$#/--------------------------------------------------------.+=:",
"@$#/--------------------------------------------------------.+=:",
"@$#/--------------------------------------------------------.+=:",
"@$#/--------------------------------------------------------.+=:",
"@$#/--------------------------------------------------------.+=:",
"@$#/--------------------------------------------------------.+=:",
"@$#/--------------------------------------------------------.+=:",
"@$#/--------------------------------------------------------.+=:",
"@$#/--------------------------------------------------------.+=:",
"@$#/--------------------------------------------------------.+=:",
"@$#/--------------------------------------------------------.+=:",
"@$#/--------------------------------------------------------.+=:",
"@$#/--------------------------------------------------------.+=:",
"@$#/--------------------------------------------------------.+=:",
"@$#/--------------------------------------------------------.+=:",
"@$#/--------------------------------------------------------.+=:",
"@$#/--------------------------------------------------------.+=:",
"@$#/--------------------------------------------------------.+=:",
"@$#/--------------------------------------------------------.+=:",
"@$#/--------------------------------------------------------.+=:",
"@$#/--------------------------------------------------------.+=:",
"@$#..........................................................+=:",
"@$$+++++++++++++++++++++++++++++++++++++++++++++++++++++++++++=:",
"@==============================================================:",
"=:::::::::::::::::::::::::::::::::::::::::::::::::::::::::::::::"
};
