/* XPM */
static char * max_pressed_xpm[] = {
"16 16 4 1",
" 	c None",
".	c #161616",
"#	c #455787",
"$	c #C3C3C3",
"................",
"................",
"################",
"##$$$$$$$$$$$$##",
"##$##########$##",
"##$##########$##",
"##$$$$$$$$$$$$##",
"##$##########$##",
"##$##########$##",
"##$##########$##",
"##$##########$##",
"##$##########$##",
"##$$$$$$$$$$$$##",
"################",
"................",
"................"};
