/* XPM */
static char * close_xpm[] = {
"16 16 8 1",
" 	c None",
".	c #161616",
"#	c #394870",
";	c #394870",
"$	c #C3C3C3",
"-	c #373737",
"@	c #9C9C9C",
":	c #808080",
"................",
"................",
"################",
"################",
"################",
"################",
"################",
"################",
"################",
"################",
"################",
"################",
"################",
"################",
"................",
"................"
};
