/* XPM */
static char * min_pressed_xpm[] = {
"16 16 4 1",
" 	c None",
".	c #161616",
"@	c #5369A3",
"$	c #C0C0C0",
"................",
"................",
"@@@@@@@@@@@@@@@@",
"@@@@@@@@@@@@@@@@",
"@@@@@@@@@@@@@@@@",
"@@@@$$$$$$$$@@@@",
"@@@@@$$$$$$@@@@@",
"@@@@@@$$$$@@@@@@",
"@@@@@@@$$@@@@@@@",
"@@@@@@@@@@@@@@@@",
"@@$$$$$$$$$$$$@@",
"@@$@@@@@@@@@@$@@",
"@@$$$$$$$$$$$$@@",
"@@@@@@@@@@@@@@@@",
"................",
"................"
};
