/* XPM */
static char * stuck_focus_xpm[] = {
"16 16 4 1",
" 	c None",
".	c #161616",
"#	c #C0C0C0",
"%	c #455787",
"................",
"................",
"%%%%%%%%%%%%%%%%",
"%%%%%%%%%%%%%%%%",
"%%%%%%%%%%%%%%%%",
"%%%%%######%%%%%",
"%%%%%#%%%%#%%%%%",
"%%%%%#%##%#%%%%%",
"%%%%%#%##%#%%%%%",
"%%%%%#%%%%#%%%%%",
"%%%%%######%%%%%",
"%%%%%%%%%%%%%%%%",
"%%%%%%%%%%%%%%%%",
"%%%%%%%%%%%%%%%%",
"................",
"................"
};
