/* XPM */
static char * close_pressed_xpm[] = {
"22 14 8 1",
" 	c None",
".	c #161616",
"#	c #394B4D",
";	c #394B4D",
"$	c #C3C3C3",
"-	c #373737",
"@	c #9C9C9C",
":	c #808080",
";;;;;;;;;;;;;;;;;;;;  ",
";;;;;;;;;;;;;;;;;;;;  ",
";;;;;;;;;;;;;;;;;;;;  ",
";;;;;;$$;;;;;;$$;;;;  ",
";;;;;;;$$;;;;$$;;;;;  ",
";;;;;;;;$$;;$$;;;;;;  ",
";;;;;;;;;$$$$;;;;;;;  ",
";;;;;;;;;$$$$;;;;;;;  ",
";;;;;;;;$$;;$$;;;;;;  ",
";;;;;;;$$;;;;$$;;;;;  ",
";;;;;;$$;;;;;;$$;;;;  ",
";;;;;;;;;;;;;;;;;;;;  ",
";;;;;;;;;;;;;;;;;;;;  ",
";;;;;;;;;;;;;;;;;;;;  "
};
