#define max_width 12
#define max_height 12
static char max_bits[] = {
  0xFF, 0x0F, 0x01, 0x08, 0xFF, 0x0F, 0x01, 0x08, 0x01, 0x08, 0x01, 0x08, 
  0x01, 0x08, 0x01, 0x08, 0x01, 0x08, 0x01, 0x08, 0x01, 0x08, 0xFF, 0x0F, 
  };
