#define max_toggled_width 12
#define max_toggled_height 12
static char max_toggled_bits[] = {
  0xFC, 0x0F, 0x04, 0x08, 0xFC, 0x0F, 0x04, 0x08, 0x04, 0x08, 0x7F, 0x08, 
  0x41, 0x08, 0x7F, 0x08, 0x41, 0x08, 0xC1, 0x0F, 0x41, 0x00, 0x7F, 0x00, 
  };
