/* XPM */
static char *arrow_focused_xpm[] = {
/* columns rows colors chars-per-pixel */
"5 7 3 1 ",
"  c None",
": c #e3e5eb",
". c #373737",
/* pixels */
".::::",
"..:::",
"...::",
"....:",
"...::",
"..:::",
".::::"
};
