/* XPM */
static char *border_br_xpm[] = {
/* columns rows colors chars-per-pixel */
"8 8 2 1 ",
"  c None",
". c #e3e5e7",
/* pixels */
"       .",
"       .",
"       .",
"       .",
"       .",
"       .",
"........",
"........"
};
