/* XPM */
static char * close_focused_xpm[] = {
"17 18 8 1",
" 	c None",
".	c None",
"#	c #313131",
";	c #313131",
"$	c #C3C3C3",
"-	c #373737",
"@	c #9C9C9C",
":	c #808080",
".................",
".................",
".................",
"################.",
"##:$@######:$@##.",
"###:$@####:$@###.",
"####:$@##:$@####.",
"#####:$@:$@#####.",
"######:$$@######.",
"######:$$@######.",
"#####:$@:$@#####.",
"####:$@##:$@####.",
"###:$@####:$@###.",
"##:$@######:$@##.",
"################.",
".................",
".................",
"................."
};
