/* XPM */
static char * close_pressed_xpm[] = {
"17 18 8 1",
" 	c None",
".	c None",
"#	c #313131",
";	c #313131",
"$	c #F0F0F0",
"-	c #373737",
"@	c #9C9C9C",
":	c #808080",
".................",
".................",
".................",
";;;;;;;;;;;;;;;;.",
";;;;;;;;;;;;;;;;.",
";;;$$;;;;;;$$;;;.",
";;;;$$;;;;$$;;;;.",
";;;;;$$;;$$;;;;;.",
";;;;;;$$$$;;;;;;.",
";;;;;;$$$$;;;;;;.",
";;;;;$$;;$$;;;;;.",
";;;;$$;;;;$$;;;;.",
";;;$$;;;;;;$$;;;.",
";;;;;;;;;;;;;;;;.",
";;;;;;;;;;;;;;;;.",
".................",
".................",
"................."
};
