/* XPM */
static char * maximize_pressed_xpm[] = {
"17 18 4 1",
" 	c None",
".	c None",
"#	c #6D6D6D",
"$	c #f0f0f0",
".................",
".................",
".................",
"################.",
"##$$$$$$$$$$$$##.",
"##$##########$##.",
"##$##########$##.",
"##$$$$$$$$$$$$##.",
"##$##########$##.",
"##$##########$##.",
"##$##########$##.",
"##$##########$##.",
"##$##########$##.",
"##$$$$$$$$$$$$##.",
"################.",
".................",
".................",
"................."};
