/* XPM */
static char * minimize_unfocus_xpm[] = {
"17 18 4 1",
" 	c None",
".	c None",
"#	c #919191",
"$	c #C0C0C0",
".................",
".................",
".................",
"################.",
"################.",
"################.",
"################.",
"################.",
"################.",
"################.",
"################.",
"################.",
"################.",
"################.",
"################.",
".................",
".................",
"................."};
