/* XPM */
static char * minimize_hovered_xpm[] = {
"17 18 4 1",
" 	c None",
".	c None",
"#	c #919191",
"$	c #f0f0f0",
".................",
".................",
".................",
"################.",
"################.",
"################.",
"################.",
"################.",
"################.",
"################.",
"################.",
"##$$$$$$$$$$$$##.",
"##$##########$##.",
"##$$$$$$$$$$$$##.",
"################.",
".................",
".................",
"................."};
