/* XPM */
static char *border_b_xpm[] = {
/* columns rows colors chars-per-pixel */
"100 8 5 1 ",
"  c #e3e5eb",
". c #e3e5eb",
"x c #d0d0d0",
"y c #c0c0c0",
"z c #9c9c9c",
/* pixels */
"                                                                                                    ",
"                                                                                                    ",
"                                                                                                    ",
" yyyyyyyyyyyyyyyyyyyyyyyyyyyyyyyyyyyyyyyyyyyyyyyyyyyyyyyyyyyyyyyyyyyyyyyyyyyyyyyyyyyyyyyyyyyyyyyyyx ",
"yzzzzzzzzzzzzzzzzzzzzzzzzzzzzzzzzzzzzzzzzzzzzzzzzzzzzzzzzzzzzzzzzzzzzzzzzzzzzzzzzzzzzzzzzzzzzzzzzzzz",
" xxxxxxxxxxxxxxxxxxxxxxxxxxxxxxxxxxxxxxxxxxxxxxxxxxxxxxxxxxxxxxxxxxxxxxxxxxxxxxxxxxxxxxxxxxxxxxxxxx ",
"                                                                                                    ",
"                                                                                                    "
};
