/* XPM */
static char *desk_toggled_hover[] = {
/* columns rows colors chars-per-pixel */
"12 12 2 1 ",
"  c gray100",
". c black",
/* pixels */
"            ",
"            ",
"  ........  ",
"  .      .  ",
"  . .... .  ",
"  . . .. .  ",
"  . .. . .  ",
"  . .... .  ",
"  .      .  ",
"  ........  ",
"            ",
"            "
};
