/* XPM */
static char *desk_pressed[] = {
/* columns rows colors chars-per-pixel */
"12 12 2 1 ",
"  c gray100",
". c black",
/* pixels */
"            ",
"            ",
"  ........  ",
"  .      .  ",
"  . .  . .  ",
"  .  ..  .  ",
"  .  ..  .  ",
"  . .  . .  ",
"  .      .  ",
"  ........  ",
"            ",
"            "
};
