#define desk_pressed_width 12
#define desk_pressed_height 12
static char desk_pressed_bits[] = {
  0x00, 0x00, 0x00, 0x00, 0xFC, 0x03, 0x04, 0x02, 0x94, 0x02, 0x64, 0x02, 
  0x64, 0x02, 0x94, 0x02, 0x04, 0x02, 0xFC, 0x03, 0x00, 0x00, 0x00, 0x00, 
  };
