#define max_width 16
#define max_height 12
static char max_bits[] = {
  0x00, 0x00, 0x00, 0x00, 0xF8, 0x1F, 0x08, 0x10, 0xF8, 0x1F, 0x08, 0x10, 
  0x08, 0x10, 0x08, 0x10, 0x08, 0x10, 0xF8, 0x1F, 0x00, 0x00, 0x00, 0x00, 
  };
