#define close_hover_width 12
#define close_hover_height 12
static char close_hover_bits[] = {
  0x03, 0x0C, 0x07, 0x0E, 0x0E, 0x07, 0x9C, 0x03, 0xF8, 0x01, 0xF0, 0x00, 
  0xF0, 0x00, 0xF8, 0x01, 0x9C, 0x03, 0x0E, 0x07, 0x07, 0x0E, 0x03, 0x0C, 
  };
