#define iconify_hover_width 12
#define iconify_hover_height 12
static char iconify_hover_bits[] = {
  0x60, 0x00, 0x60, 0x00, 0x60, 0x00, 0x60, 0x00, 0x66, 0x06, 0xFC, 0x03, 
  0xF8, 0x01, 0xF0, 0x00, 0x60, 0x00, 0xFF, 0x0F, 0x01, 0x08, 0xFF, 0x0F, 
  };
