#define unshade_width 16
#define unshade_height 12
static char unshade_bits[] = {
  0x00, 0x00, 0xFC, 0x3F, 0x04, 0x20, 0xFC, 0x3F, 0x00, 0x00, 0xF0, 0x0F, 
  0xE0, 0x07, 0xC0, 0x03, 0x80, 0x01, 0x00, 0x00, 0x00, 0x00, 0x00, 0x00, 
  };
