#define shade_disabled_width 12
#define shade_disabled_height 12
static char shade_disabled_bits[] = {
  0xFF, 0x0F, 0x01, 0x08, 0x01, 0x08, 0x00, 0x00, 0x00, 0x00, 0x00, 0x00, 
  0x00, 0x00, 0x00, 0x00, 0x00, 0x00, 0x00, 0x00, 0x00, 0x00, 0x00, 0x00, 
  };
