/* XPM */
static char * lhalf_pressed_xpm[] = {
"20 14 4 1",
" 	c None",
".	c #161616",
"#	c #E3E5EB",
"$	c #AEAEAE",
"$$$$$$$$$$$$$$$$$$$$",
"$$$$$$$$$$$$$$$$$$$$",
"$$$$#######$$$$$$$$$",
"$$$$#$$$$$#$$$$#$$$$",
"$$$$#######$$$##$$$$",
"$$$$#$$$$$#$$###$$$$",
"$$$$#$$$$$#$####$$$$",
"$$$$#$$$$$#$####$$$$",
"$$$$#$$$$$#$$###$$$$",
"$$$$#$$$$$#$$$##$$$$",
"$$$$#$$$$$#$$$$#$$$$",
"$$$$#######$$$$$$$$$",
"$$$$$$$$$$$$$$$$$$$$",
"$$$$$$$$$$$$$$$$$$$$"
};
