/* XPM */
static char *tile[] = {
/* columns rows colors chars-per-pixel */
"64 90 10 1 ",
"  c None",
"@ c #467177", /* outside tl edge */
"$ c #4A6367", /* next tl edge */
"# c #224242", /* next tl edge */
"/ c #163636", /* next tl edge */
"- c #161616", /* center tile color */
". c #467177", /* inner br edge */
"+ c #4A6367", /* next br edge */
"= c #224242", /* next br edge */
": c #163636", /* next br edge */
"  @@@@@@@@@@@@@@@@@@@@@@@@@@@@@@@@@@@@@@@@@@@@@@@@@@@@@@@@@@@   ",
" @$$$$$$$$$$$$$$$$$$$$$$$$$$$$$$$$$$$$$$$$$$$$$$$$$$$$$$$$$$$$  ",
" $$#########################################################.$= ",
"@$##////////////////////////////////////////////////////////.+=:",
"@$#//-------------------------------------------------------.+=:",
"@$#/--------------------------------------------------------.+=:",
"@$#/--------------------------------------------------------.+=:",
"@$#/--------------------------------------------------------.+=:",
"@$#/--------------------------------------------------------.+=:",
"@$#/--------------------------------------------------------.+=:",
"@$#/--------------------------------------------------------.+=:",
"@$#/--------------------------------------------------------.+=:",
"@$#/--------------------------------------------------------.+=:",
"@$#/--------------------------------------------------------.+=:",
"@$#/--------------------------------------------------------.+=:",
"@$#/--------------------------------------------------------.+=:",
"@$#/--------------------------------------------------------.+=:",
"@$#/--------------------------------------------------------.+=:",
"@$#/--------------------------------------------------------.+=:",
"@$#/--------------------------------------------------------.+=:",
"@$#/--------------------------------------------------------.+=:",
"@$#/--------------------------------------------------------.+=:",
"@$#/--------------------------------------------------------.+=:",
"@$#/--------------------------------------------------------.+=:",
"@$#/--------------------------------------------------------.+=:",
"@$#/--------------------------------------------------------.+=:",
"@$#/--------------------------------------------------------.+=:",
"@$#/--------------------------------------------------------.+=:",
"@$#/--------------------------------------------------------.+=:",
"@$#/--------------------------------------------------------.+=:",
"@$#/--------------------------------------------------------.+=:",
"@$#/--------------------------------------------------------.+=:",
"@$#/--------------------------------------------------------.+=:",
"@$#/--------------------------------------------------------.+=:",
"@$#/--------------------------------------------------------.+=:",
"@$#/--------------------------------------------------------.+=:",
"@$#/--------------------------------------------------------.+=:",
"@$#/--------------------------------------------------------.+=:",
"@$#/--------------------------------------------------------.+=:",
"@$#/--------------------------------------------------------.+=:",
"@$#/--------------------------------------------------------.+=:",
"@$#/--------------------------------------------------------.+=:",
"@$#/--------------------------------------------------------.+=:",
"@$#/--------------------------------------------------------.+=:",
"@$#/--------------------------------------------------------.+=:",
"@$#/--------------------------------------------------------.+=:",
"@$#/--------------------------------------------------------.+=:",
"@$#/--------------------------------------------------------.+=:",
"@$#/--------------------------------------------------------.+=:",
"@$#/--------------------------------------------------------.+=:",
"@$#/--------------------------------------------------------.+=:",
"@$#/--------------------------------------------------------.+=:",
"@$#/--------------------------------------------------------.+=:",
"@$#/--------------------------------------------------------.+=:",
"@$#/--------------------------------------------------------.+=:",
"@$#/--------------------------------------------------------.+=:",
"@$#/--------------------------------------------------------.+=:",
"@$#/--------------------------------------------------------.+=:",
"@$#/--------------------------------------------------------.+=:",
"@$#/--------------------------------------------------------.+=:",
"@$#/--------------------------------------------------------.+=:",
"@$#/--------------------------------------------------------.+=:",
"@$#/--------------------------------------------------------.+=:",
"@$#/--------------------------------------------------------.+=:",
"@$#/--------------------------------------------------------.+=:",
"@$#/--------------------------------------------------------.+=:",
"@$#/--------------------------------------------------------.+=:",
"@$#/--------------------------------------------------------.+=:",
"@$#/--------------------------------------------------------.+=:",
"@$#/--------------------------------------------------------.+=:",
"@$#/--------------------------------------------------------.+=:",
"@$#/--------------------------------------------------------.+=:",
"@$#/--------------------------------------------------------.+=:",
"@$#/--------------------------------------------------------.+=:",
"@$#/--------------------------------------------------------.+=:",
"@$#/--------------------------------------------------------.+=:",
"@$#/--------------------------------------------------------.+=:",
"@$#/--------------------------------------------------------.+=:",
"@$#/--------------------------------------------------------.+=:",
"@$#/--------------------------------------------------------.+=:",
"@$#/--------------------------------------------------------.+=:",
"@$#/--------------------------------------------------------.+=:",
"@$#/--------------------------------------------------------.+=:",
"@$#/--------------------------------------------------------.+=:",
"@$#/--------------------------------------------------------.+=:",
"@$#/-------------------------------------------------------..+=:",
"@$#.........................................................++=:",
" $$++++++++++++++++++++++++++++++++++++++++++++++++++++++++++== ",
"  ============================================================  ",
"   ::::::::::::::::::::::::::::::::::::::::::::::::::::::::::   "
};
