#define rhalf_width 16
#define rhalf_height 12
static char rhalf_bits[] = {
  0x00, 0x00, 0x80, 0x3F, 0x80, 0x20, 0x80, 0x3F, 0x80, 0x20, 0x80, 0x20, 
  0x80, 0x20, 0x80, 0x20, 0x80, 0x20, 0x80, 0x20, 0x80, 0x3F, 0x00, 0x00, 
  };
