#define lhalf_width 16
#define lhalf_height 12
static char lhalf_bits[] = {
  0x00, 0x00, 0xFC, 0x01, 0x04, 0x01, 0xFC, 0x01, 0x04, 0x01, 0x04, 0x01, 
  0x04, 0x01, 0x04, 0x01, 0x04, 0x01, 0x04, 0x01, 0xFC, 0x01, 0x00, 0x00, 
  };
