/* XPM */
static char * stick_pressed_xpm[] = {
"20 14 4 1",
" 	c None",
".	c #161616",
"#	c #C3C3C3",
"%	c #455787",
"%%%%%%%%%%%%%%%%%%%%",
"%%%%%%%%%%%%%%%%%%%%",
"%%%%%%%%%%%%%%%%%%%%",
"%%%%%%%%%%%%%%%%%%%%",
"%%%%%%%######%%%%%%%",
"%%%%%%%#%%%%#%%%%%%%",
"%%%%%%%#%##%#%%%%%%%",
"%%%%%%%#%##%#%%%%%%%",
"%%%%%%%#%%%%#%%%%%%%",
"%%%%%%%######%%%%%%%",
"%%%%%%%%%%%%%%%%%%%%",
"%%%%%%%%%%%%%%%%%%%%",
"%%%%%%%%%%%%%%%%%%%%",
"%%%%%%%%%%%%%%%%%%%%"
};
