/* XPM */
static char * toolbar_unfocused_xpm[] = {
"10 18 4 1",
" 	c None",
".	c #181818",
"+	c #455787",
"@	c #5369A3",
"++++++++++",
"..........",
"..........",
"..........",
"..........",
"..........",
"..........",
"..........",
"..........",
"..........",
"..........",
"..........",
"..........",
"..........",
"..........",
"..........",
"..........",
"++++++++++"};
