#define max_disabled_width 12
#define max_disabled_height 12
static char max_disabled_bits[] = {
  0x00, 0x00, 0x00, 0x00, 0x00, 0x00, 0x00, 0x00, 0x00, 0x00, 0x7F, 0x00, 
  0x41, 0x00, 0x7F, 0x00, 0x41, 0x00, 0x41, 0x00, 0x41, 0x00, 0x7F, 0x00, 
  };
