#define close_disabled_width 12
#define close_disabled_height 12
static char close_disabled_bits[] = {
  0x00, 0x00, 0x06, 0x06, 0x0E, 0x07, 0x9C, 0x03, 0x98, 0x01, 0x00, 0x00, 
  0x00, 0x00, 0x98, 0x01, 0x9C, 0x03, 0x0E, 0x07, 0x06, 0x06, 0x00, 0x00, 
  };
