#define desk_disabled_width 12
#define desk_disabled_height 12
static char desk_disabled_bits[] = {
  0x00, 0x00, 0x00, 0x00, 0xFC, 0x03, 0x0C, 0x03, 0x94, 0x02, 0x64, 0x02, 
  0x64, 0x02, 0x94, 0x02, 0x0C, 0x03, 0xFC, 0x03, 0x00, 0x00, 0x00, 0x00, 
  };
