#define hilite_select_width 13
#define hilite_select_height 13
static char hilite_select_bits[] = {
  0x00, 0x00, 0x00, 0x00, 0x00, 0x00, 0xF0, 0x01, 0x10, 0x01, 0x50, 0x01, 
  0x10, 0x01, 0xF0, 0x01, 0x00, 0x00, 0x00, 0x00, 0x00, 0x00, 0x00, 0x00, 
  0x00, 0x00, };
