#define max_pressed_width 16
#define max_pressed_height 12
static char max_pressed_bits[] = {
  0x00, 0x00, 0xFC, 0x3F, 0x04, 0x20, 0x04, 0x20, 0xFC, 0x3F, 0x04, 0x20, 
  0x04, 0x20, 0x04, 0x20, 0x04, 0x20, 0x04, 0x20, 0xFC, 0x3F, 0x00, 0x00, 
  };
