/* XPM */
static char * rhalf_pressed_xpm[] = {
"20 14 3 1",
" 	c None",
"#	c #E3E5EB",
"$	c #AEAEAE",
"$$$$$$$$$$$$$$$$$$$$",
"$$$$$$$$$$$$$$$$$$$$",
"$$$$$$$$$#######$$$$",
"$$$$#$$$$#$$$$$#$$$$",
"$$$$##$$$#######$$$$",
"$$$$###$$#$$$$$#$$$$",
"$$$$####$#$$$$$#$$$$",
"$$$$####$#$$$$$#$$$$",
"$$$$###$$#$$$$$#$$$$",
"$$$$##$$$#$$$$$#$$$$",
"$$$$#$$$$#$$$$$#$$$$",
"$$$$$$$$$#######$$$$",
"$$$$$$$$$$$$$$$$$$$$",
"$$$$$$$$$$$$$$$$$$$$"
};
