/* XPM */
static char * menuicon_pressed_xpm[] = {
"22 14 4 1",
" 	c None",
".	c #161616",
"#	c #C3C3C3",
"%	c #394870",
"..%%%%%%%%%%%%%%%%%%%%",
"..%%%%%%%%%%%%%%%%%%%%",
"..%%%############%%%%%",
"..%%%############%%%%%",
"..%%%#%%%%%%%%%%#%%%%%",
"..%%%#%########%#%%%%%",
"..%%%#%%%%%%%%%%#%%%%%",
"..%%%#%########%#%%%%%",
"..%%%#%%%%%%%%%%#%%%%%",
"..%%%#%########%#%%%%%",
"..%%%#%%%%%%%%%%#%%%%%",
"..%%%############%%%%%",
"..%%%%%%%%%%%%%%%%%%%%",
"..%%%%%%%%%%%%%%%%%%%%"
};
